<svg width="22" height="18" viewBox="0 0 22 18" fill="none" xmlns="http://www.w3.org/2000/svg">
<path fill-rule="evenodd" clip-rule="evenodd" d="M9.27 10.61L1.35 6.61C1.07783 6.42356 0.915131 6.11489 0.915131 5.785C0.915131 5.4551 1.07783 5.14643 1.35 4.96L9.27 0.959996C9.6836 0.755788 10.1387 0.649707 10.6 0.649994C11.0202 0.652261 11.4354 0.740754 11.82 0.909996L20.61 4.91C20.9283 5.08611 21.1259 5.42121 21.1259 5.785C21.1259 6.14879 20.9283 6.48388 20.61 6.66L11.82 10.66C11.4354 10.8292 11.0202 10.9177 10.6 10.92C10.1387 10.9203 9.6836 10.8142 9.27 10.61ZM10.65 2.11C10.4246 2.10843 10.2019 2.15981 10 2.26L3 5.75L10 9.23C10.2019 9.33018 10.4246 9.38156 10.65 9.38C10.8572 9.38226 11.0623 9.33783 11.25 9.25L18.96 5.75L11.25 2.24C11.0623 2.15216 10.8572 2.10773 10.65 2.11Z" fill="#48BB78"/>
<path d="M20.29 9.04999L11.44 12.74C10.8987 12.9959 10.2713 12.9959 9.72999 12.74L1.88999 9.05999C1.64527 8.94745 1.35909 8.97402 1.13927 9.12969C0.919442 9.28536 0.799365 9.54648 0.824267 9.81469C0.849169 10.0829 1.01527 10.3174 1.25999 10.43L9.07999 14.05C9.56522 14.29 10.0987 14.4165 10.64 14.42C11.1238 14.4212 11.6019 14.3153 12.04 14.11L20.86 10.44C21.0496 10.3649 21.2004 10.2159 21.2777 10.0272C21.3551 9.83856 21.3523 9.62654 21.27 9.43999C21.1014 9.06757 20.6684 8.89526 20.29 9.04999Z" fill="#48BB78"/>
<path d="M20.29 12.13L11.44 15.82C10.8987 16.076 10.2713 16.076 9.72999 15.82L1.88999 12.15C1.64521 12.0247 1.35146 12.0433 1.12452 12.1987C0.897584 12.354 0.773862 12.6211 0.802123 12.8946C0.830383 13.1682 1.00609 13.4043 1.25999 13.51L9.07999 17.13C9.56045 17.3733 10.0914 17.5001 10.63 17.5C11.1038 17.4974 11.5713 17.3917 12 17.19L20.82 13.52C21.0096 13.4449 21.1604 13.2959 21.2377 13.1072C21.3151 12.9186 21.3123 12.7066 21.23 12.52C21.0595 12.172 20.6568 12.0049 20.29 12.13Z" fill="#48BB78"/>
</svg>
