<svg width="168" height="101" viewBox="0 0 168 101" fill="none" xmlns="http://www.w3.org/2000/svg">
<path d="M61.5 7L58 18L77 60H86L61.5 7Z" fill="#E90003"/>
<path d="M109 0H100L127 60H162V55L138 0H129C135.667 15 149.8 46.5 151 48.5C152.2 50.5 151.5 52 151 52.5H133L109 0Z" fill="#EC0004"/>
<path d="M13 60H3L21.5 0H31L13 60Z" fill="#EC0004"/>
<path d="M27 60H17.5L36 0H45.5L27 60Z" fill="#EC0004"/>
<path d="M41 60H31.5L50 0H59.5L41 60Z" fill="#EC0004"/>
<path d="M94.5 44.5H86L92.5 60H123.5L96.5 0H87.5L108.5 48C109.333 48.6667 110.8 50.6 110 53L97.5 52.5L94.5 44.5Z" fill="#EC0004"/>
<path d="M1.681 68.3H8.118L10.988 88.841H11.07L13.94 68.3H20.377V97H16.113V75.27H16.031L12.751 97H8.979L5.699 75.27H5.617V97H1.681V68.3ZM27.6375 68.3H33.7465L38.4205 97H33.9105L33.0905 91.301V91.383H27.9655L27.1455 97H22.9635L27.6375 68.3ZM32.5575 87.488L30.5485 73.302H30.4665L28.4985 87.488H32.5575ZM41.0186 68.3H47.9066C50.1479 68.3 51.8289 68.9013 52.9496 70.104C54.0702 71.3067 54.6306 73.0697 54.6306 75.393V89.907C54.6306 92.2303 54.0702 93.9933 52.9496 95.196C51.8289 96.3987 50.1479 97 47.9066 97H41.0186V68.3ZM47.8246 92.9C48.5626 92.9 49.1229 92.6813 49.5056 92.244C49.9156 91.8067 50.1206 91.096 50.1206 90.112V75.188C50.1206 74.204 49.9156 73.4933 49.5056 73.056C49.1229 72.6187 48.5626 72.4 47.8246 72.4H45.5286V92.9H47.8246ZM58.0848 68.3H62.5948V97H58.0848V68.3ZM66.3825 68.3H72.0405L76.4275 85.479H76.5095V68.3H80.5275V97H75.8945L70.4825 76.049H70.4005V97H66.3825V68.3ZM87.7746 68.3H93.8836L98.5576 97H94.0476L93.2276 91.301V91.383H88.1026L87.2826 97H83.1006L87.7746 68.3ZM92.6946 87.488L90.6856 73.302H90.6036L88.6356 87.488H92.6946ZM108.132 68.3H114.938C117.261 68.3 118.956 68.8467 120.022 69.94C121.088 71.006 121.621 72.6597 121.621 74.901V76.049C121.621 77.525 121.375 78.7277 120.883 79.657C120.418 80.5863 119.694 81.256 118.71 81.666V81.748C120.951 82.5133 122.072 84.5087 122.072 87.734V90.194C122.072 92.408 121.484 94.1027 120.309 95.278C119.161 96.426 117.466 97 115.225 97H108.132V68.3ZM114.405 79.985C115.307 79.985 115.977 79.7527 116.414 79.288C116.879 78.8233 117.111 78.0443 117.111 76.951V75.352C117.111 74.3133 116.92 73.5617 116.537 73.097C116.182 72.6323 115.608 72.4 114.815 72.4H112.642V79.985H114.405ZM115.225 92.9C116.018 92.9 116.605 92.695 116.988 92.285C117.371 91.8477 117.562 91.1097 117.562 90.071V87.57C117.562 86.258 117.33 85.356 116.865 84.864C116.428 84.3447 115.69 84.085 114.651 84.085H112.642V92.9H115.225ZM128.603 68.3H134.712L139.386 97H134.876L134.056 91.301V91.383H128.931L128.111 97H123.929L128.603 68.3ZM133.523 87.488L131.514 73.302H131.432L129.464 87.488H133.523ZM143.05 97.164C142.23 97.164 141.533 97.1093 140.959 97V92.9C141.397 93.0093 141.889 93.064 142.435 93.064C143.337 93.064 144.007 92.8453 144.444 92.408C144.882 91.9433 145.1 91.2463 145.1 90.317V68.3H149.61V90.194C149.61 92.5447 149.064 94.294 147.97 95.442C146.904 96.59 145.264 97.164 143.05 97.164ZM156.73 68.3H162.839L167.513 97H163.003L162.183 91.301V91.383H157.058L156.238 97H152.056L156.73 68.3ZM161.65 87.488L159.641 73.302H159.559L157.591 87.488H161.65Z" fill="#260825"/>
</svg>
