<svg width="22" height="13" viewBox="0 0 22 13" fill="none" xmlns="http://www.w3.org/2000/svg">
<path d="M20.72 5.57234H17.84C17.1124 5.56878 16.4136 5.85691 15.9 6.37234L11.48 10.7923V1.24234C11.4769 0.736585 11.1693 0.282548 10.7008 0.0920732C10.2323 -0.0984016 9.69513 0.0122258 9.34 0.372338L4.51 5.20234C4.27537 5.44064 3.95442 5.57407 3.62 5.57234H0.75C0.335786 5.57234 0 5.90813 0 6.32234C0 6.73655 0.335786 7.07234 0.75 7.07234H3.62C4.36939 7.08726 5.09219 6.79453 5.62 6.26234L9.96 1.85234V11.4023C9.95897 11.9066 10.2634 12.3612 10.73 12.5523C10.8812 12.6189 11.0448 12.653 11.21 12.6523C11.5412 12.6525 11.8584 12.5191 12.09 12.2823L16.96 7.43234C17.1945 7.20111 17.5107 7.07174 17.84 7.07234H20.72C21.1342 7.07234 21.47 6.73655 21.47 6.32234C21.47 5.90813 21.1342 5.57234 20.72 5.57234Z" fill="#FFA800"/>
</svg>
