<svg width="23" height="21" viewBox="0 0 23 21" fill="none" xmlns="http://www.w3.org/2000/svg">
<path d="M14.5 2.00087C13.837 2.00087 13.2011 2.26426 12.7322 2.7331C12.2634 3.20195 12 3.83783 12 4.50087C12 5.16391 12.2634 5.7998 12.7322 6.26864C13.2011 6.73748 13.837 7.00087 14.5 7.00087C15.163 7.00087 15.7989 6.73748 16.2678 6.26864C16.7366 5.7998 17 5.16391 17 4.50087C17 3.83783 16.7366 3.20195 16.2678 2.7331C15.7989 2.26426 15.163 2.00087 14.5 2.00087ZM10 4.50087C9.99985 3.73492 10.1952 2.98161 10.5676 2.31227C10.94 1.64293 11.477 1.07972 12.1279 0.675966C12.7788 0.272212 13.522 0.0412808 14.2871 0.00504048C15.0522 -0.0311999 15.8139 0.12845 16.5 0.468872C17.1861 0.128855 17.9476 -0.030471 18.7124 0.00597102C19.4773 0.042413 20.2201 0.273418 20.8708 0.677124C21.5214 1.08083 22.0583 1.64388 22.4306 2.313C22.8029 2.98212 22.9982 3.73516 22.9982 4.50087C22.9982 5.26658 22.8029 6.01963 22.4306 6.68874C22.0583 7.35786 21.5214 7.92091 20.8708 8.32462C20.2201 8.72833 19.4773 8.95933 18.7124 8.99577C17.9476 9.03221 17.1861 8.87289 16.5 8.53287C15.8139 8.87329 15.0522 9.03294 14.2871 8.9967C13.522 8.96046 12.7788 8.72953 12.1279 8.32578C11.477 7.92202 10.94 7.35881 10.5676 6.68947C10.1952 6.02013 9.99985 5.26682 10 4.50087ZM18.25 6.98887C18.5976 7.02376 18.9487 6.98541 19.2806 6.87629C19.6124 6.76716 19.9178 6.58969 20.1769 6.35532C20.4359 6.12094 20.643 5.83487 20.7847 5.51554C20.9265 5.19622 20.9997 4.85073 20.9997 4.50137C20.9997 4.15201 20.9265 3.80653 20.7847 3.4872C20.643 3.16788 20.4359 2.8818 20.1769 2.64743C19.9178 2.41305 19.6124 2.23558 19.2806 2.12646C18.9487 2.01733 18.5976 1.97898 18.25 2.01387C18.7401 2.75061 19.0011 3.61599 19 4.50087C19.0013 5.38609 18.7403 6.25185 18.25 6.98887ZM8.435 12.2509C8.27081 12.2504 8.10814 12.2824 7.95629 12.3448C7.80444 12.4073 7.66638 12.499 7.55 12.6149L5.5 14.6649V18.5009H11.127L16.93 17.0509L20.462 15.5429C20.5823 15.4779 20.6744 15.3707 20.7205 15.242C20.7667 15.1133 20.7637 14.972 20.7122 14.8454C20.6606 14.7187 20.5641 14.6156 20.4412 14.5557C20.3182 14.4958 20.1775 14.4834 20.046 14.5209L20.026 14.5259L13.614 16.0009H10V14.0009H13.125C13.3571 14.0009 13.5796 13.9087 13.7437 13.7446C13.9078 13.5805 14 13.3579 14 13.1259C14 12.8938 13.9078 12.6712 13.7437 12.5072C13.5796 12.3431 13.3571 12.2509 13.125 12.2509H8.435ZM15.987 13.4029L19.539 12.5859C19.9173 12.4864 20.3134 12.4749 20.6968 12.5524C21.0802 12.6298 21.4408 12.7941 21.7509 13.0326C22.0609 13.2711 22.3122 13.5775 22.4854 13.9282C22.6586 14.2789 22.7491 14.6647 22.75 15.0559C22.7499 15.5308 22.6176 15.9963 22.3679 16.4002C22.1181 16.8042 21.7608 17.1306 21.336 17.3429L21.309 17.3569L17.569 18.9519L11.373 20.5009H0V13.2509H4.086L6.138 11.1989C6.44034 10.8976 6.79907 10.6588 7.1937 10.4961C7.58834 10.3334 8.01116 10.2501 8.438 10.2509H13.125C13.5259 10.2508 13.9225 10.3346 14.2891 10.4969C14.6557 10.6592 14.9843 10.8964 15.2539 11.1932C15.5234 11.49 15.7278 11.84 15.8541 12.2205C15.9804 12.6011 16.0256 13.0038 15.987 13.4029ZM3.5 15.2509H2V18.5009H3.5V15.2509Z" fill="#F64E60"/>
</svg>
